Coordinates
version=1
nRows=11
nColumns=63
inDegrees=yes

Units are S.I. units (second, meters, Newtons, ...)
If the header above contains a line with 'inDegrees', this indicates whether rotational values are in degrees (yes) or radians (no).

endheader
time	pelvis_tilt	pelvis_list	pelvis_rotation	pelvis_tx	pelvis_ty	pelvis_tz	hip_flexion_r	hip_adduction_r	hip_rotation_r	knee_angle_r	knee_angle_r_beta	ankle_angle_r	subtalar_angle_r	mtp_angle_r	hip_flexion_l	hip_adduction_l	hip_rotation_l	knee_angle_l	knee_angle_l_beta	ankle_angle_l	subtalar_angle_l	mtp_angle_l	L5_S1_Flex_Ext	L5_S1_Lat_Bending	L5_S1_axial_rotation	L4_L5_Flex_Ext	L4_L5_Lat_Bending	L4_L5_axial_rotation	L3_L4_Flex_Ext	L3_L4_Lat_Bending	L3_L4_axial_rotation	L2_L3_Flex_Ext	L2_L3_Lat_Bending	L2_L3_axial_rotation	L1_L2_Flex_Ext	L1_L2_Lat_Bending	L1_L2_axial_rotation	L1_T12_Flex_Ext	L1_T12_Lat_Bending	L1_T12_axial_rotation	Abs_r3	Abs_r2	Abs_r1	Abs_t1	Abs_t2	neck_flexion	neck_bending	neck_rotation	arm_flex_r	arm_add_r	arm_rot_r	elbow_flex_r	pro_sup_r	wrist_flex_r	wrist_dev_r	arm_flex_l	arm_add_l	arm_rot_l	elbow_flex_l	pro_sup_l	wrist_flex_l	wrist_dev_l
2.836364	-2.718048	-3.279524	90.819064	0.160854	1.089709	0.141874	1.496433	-5.527612	-9.329629	8.003792	0.139693	34.196476	14.430364	0.000000	3.940125	5.733745	8.740724	10.141625	0.177005	27.991716	-16.236702	0.000000	0.215621	-0.407035	2.016398	0.400429	-0.541357	2.142422	0.354243	-0.989665	2.142422	0.246433	-0.989665	1.764348	0.200225	-0.830026	1.638323	0.123206	-0.630497	1.512298	1.540156	-4.604463	11.214599	0.000000	0.000000	27.667606	-2.819117	4.887414	10.083222	-14.357616	50.173171	40.065631	53.466270	2.852495	8.845388	24.990201	7.772721	165.837183	0.499260	0.543629	10.706592	-24.210368
2.854545	-2.619860	-3.296999	90.938850	0.159836	1.089390	0.141949	1.353585	-5.489638	-9.620218	7.786252	0.135896	34.258106	14.771090	0.000000	3.991408	5.720811	9.041043	10.162925	0.177376	28.162646	-16.421831	0.000000	0.178676	-0.262452	2.069612	0.331819	-0.349061	2.198962	0.293547	-0.638126	2.198962	0.204209	-0.638126	1.810910	0.165919	-0.535192	1.681559	0.102096	-0.406538	1.552209	1.276266	-2.968911	11.510559	0.000000	0.000000	27.599630	-2.862495	6.466939	9.439163	-13.010389	54.916821	37.758012	51.155371	1.515505	6.275342	24.155375	8.847330	165.431667	0.492675	0.568931	15.177229	-24.530277
2.872727	-2.353383	-3.262107	90.903768	0.158758	1.089343	0.142352	1.247656	-5.285987	-9.788184	7.662938	0.133743	34.175830	15.074874	0.000000	4.004124	5.529031	9.144947	10.192802	0.177898	28.284863	-16.605826	0.000000	0.141404	-0.099595	2.118721	0.262601	-0.132461	2.251142	0.232312	-0.242154	2.251142	0.161610	-0.242154	1.853881	0.131308	-0.203093	1.721461	0.080798	-0.154272	1.589041	1.010033	-1.126635	11.783693	0.000000	0.000000	27.541519	-3.171495	7.810157	9.034847	-12.106757	59.470355	36.310817	50.155783	0.422988	3.843992	23.554799	10.920804	171.016849	-1.976525	-3.584934	20.422211	-26.031868
2.890909	-2.133006	-3.258956	90.825946	0.158205	1.089145	0.142854	1.239736	-5.111366	-9.938487	7.652006	0.133553	34.143906	15.348268	0.000000	4.051388	5.348783	9.147901	10.231833	0.178579	28.362773	-16.769252	0.000000	0.112198	0.043211	2.115052	0.208362	0.057471	2.247243	0.184329	0.105063	2.247243	0.128231	0.105063	1.850671	0.104187	0.088116	1.718480	0.064110	0.066934	1.586289	0.801416	0.488812	11.763286	0.000000	0.000000	27.505964	-3.450278	9.075742	9.013406	-11.352815	64.191247	35.533084	50.476533	-0.607268	1.699900	22.749430	12.183414	173.812874	-3.066659	-5.449690	24.307358	-26.645551
2.909091	-1.973646	-3.314239	90.717350	0.158195	1.088793	0.143447	1.346281	-4.973773	-10.028800	7.723190	0.134795	34.153477	15.548065	0.000000	4.163266	5.193979	9.055258	10.279232	0.179406	28.388655	-16.907936	0.000000	0.095077	0.159326	2.071506	0.176567	0.211903	2.200975	0.156201	0.387385	2.200975	0.108663	0.387385	1.812568	0.088288	0.324897	1.683098	0.054327	0.246796	1.553629	0.679122	1.802326	11.521093	0.000000	0.000000	27.491486	-3.645224	10.072593	9.333299	-10.754810	68.879504	35.368187	52.099857	-1.553673	0.010707	21.810953	12.695070	174.146974	-2.924018	-5.247737	26.852913	-26.419098
2.927273	-1.866978	-3.422688	90.649046	0.158601	1.088299	0.144069	1.540211	-4.874186	-10.162454	7.865191	0.137273	34.206474	15.718212	0.000000	4.328659	5.062805	8.964310	10.328797	0.180272	28.385132	-17.014301	0.000000	0.089311	0.248155	1.980929	0.165859	0.330047	2.104737	0.146728	0.603365	2.104737	0.102073	0.603365	1.733313	0.082934	0.506038	1.609505	0.051032	0.384393	1.485697	0.637937	2.807182	11.017335	0.000000	0.000000	27.498292	-3.682828	10.883696	10.003688	-10.339479	73.462105	35.686191	54.917818	-2.489409	-1.219765	20.779934	12.501904	171.720113	-1.682749	-3.190335	28.321290	-25.706919
2.945455	-1.836015	-3.587318	90.617305	0.159448	1.087678	0.144690	1.817445	-4.833414	-10.314498	8.067053	0.140797	34.296307	15.843570	0.000000	4.542652	4.979349	8.864605	10.362014	0.180851	28.347902	-17.078601	0.000000	0.095545	0.304641	1.862747	0.177436	0.405172	1.979169	0.156970	0.740704	1.979169	0.109198	0.740704	1.629904	0.088723	0.621224	1.513482	0.054594	0.471889	1.397060	0.682465	3.446159	10.360040	0.000000	0.000000	27.525205	-3.475786	11.474266	10.896961	-10.087227	77.678308	36.392630	58.829926	-3.362521	-2.014905	19.744888	11.686558	167.189031	0.505208	0.436873	28.681449	-24.495411
2.963636	-1.872745	-3.807468	90.658791	0.160642	1.086940	0.145269	2.151083	-4.847451	-10.549812	8.297894	0.144826	34.406657	15.974928	0.000000	4.807064	4.943019	8.801264	10.386142	0.181272	28.295571	-17.100148	0.000000	0.113890	0.331589	1.719849	0.211505	0.441013	1.827339	0.187110	0.806226	1.827339	0.130165	0.806226	1.504868	0.105758	0.676176	1.397377	0.065077	0.513631	1.289887	0.813504	3.751002	9.565283	0.000000	0.000000	27.571696	-2.993469	12.033788	11.944734	-9.992661	81.513130	37.378115	63.582692	-4.275790	-2.471053	18.734739	10.340780	160.835232	3.498079	5.420823	27.957253	-22.883666
2.981818	-1.979601	-4.074865	90.766186	0.162136	1.086096	0.145787	2.524751	-4.918396	-10.841573	8.544959	0.149138	34.532411	16.101109	0.000000	5.106263	4.960986	8.793293	10.388493	0.181313	28.232003	-17.091171	0.000000	0.142361	0.331362	1.566290	0.264379	0.440711	1.664183	0.233886	0.805673	1.664183	0.162705	0.805673	1.370504	0.132197	0.675713	1.272610	0.081345	0.513279	1.174717	1.016873	3.748430	8.711234	0.000000	0.000000	27.635970	-2.243955	12.627944	13.077595	-10.008042	84.942190	38.484154	68.854194	-5.225732	-2.780426	17.784146	8.570695	153.115328	7.143660	11.543190	26.182525	-20.966326
3.000000	-2.138310	-4.367592	90.947963	0.163800	1.085164	0.146250	2.902706	-5.031385	-11.199075	8.785762	0.153340	34.666635	16.232139	0.000000	5.419589	5.025558	8.870979	10.374612	0.181071	28.174413	-17.070729	0.000000	0.176983	0.311025	1.410423	0.328675	0.413663	1.498574	0.290765	0.756226	1.498574	0.202274	0.756226	1.234120	0.164346	0.634242	1.145969	0.101128	0.481777	1.057817	1.264171	3.518375	7.844349	0.000000	0.000000	27.713634	-1.304485	13.293251	14.285854	-10.065742	88.100047	39.543495	74.284642	-6.306358	-3.146496	16.906836	6.500264	144.336387	11.297599	18.567330	23.528092	-18.801596
3.018182	-2.317041	-4.668573	91.190371	0.165511	1.084147	0.146663	3.259936	-5.155507	-11.577466	8.996809	0.157024	34.799923	16.343543	0.000000	5.728892	5.111524	9.040314	10.343363	0.180526	28.143753	-17.046909	0.000000	0.214528	0.280195	1.269878	0.398400	0.372659	1.349245	0.352448	0.681266	1.349245	0.245184	0.681266	1.111143	0.199211	0.571374	1.031776	0.122581	0.434022	0.952409	1.532353	3.169623	7.062681	0.000000	0.000000	27.799881	-0.292331	14.038342	15.439431	-10.087047	90.697087	40.457241	80.037892	-7.364522	-3.621221	16.116913	4.278596	134.894687	15.799174	26.275576	20.246131	-16.454608
